<?xml version="1.0" encoding="utf-8"?>
<!-- Generator: Adobe Illustrator 17.0.0, SVG Export Plug-In . SVG Version: 6.00 Build 0)  -->
<!DOCTYPE svg PUBLIC "-//W3C//DTD SVG 1.1//EN" "http://www.w3.org/Graphics/SVG/1.1/DTD/svg11.dtd">
<svg version="1.1" xmlns="http://www.w3.org/2000/svg" xmlns:xlink="http://www.w3.org/1999/xlink" x="0px" y="0px" width="4200px"
	 height="4200px" viewBox="0 0 4200 4200" enable-background="new 0 0 4200 4200" xml:space="preserve">
<g id="Layer_1">
	<g>
		<polygon fill="#FFC98B" points="1837.544,1866.66 1575.08,1399.943 1312.543,1866.66 		"/>
		<polygon fill="#F18C53" points="787.54,2800.074 1049.987,3266.605 1312.543,2800.074 		"/>
		<polygon fill="#EA8353" points="787.54,2799.998 525.013,2333.357 262.638,2800.074 787.54,2800.074 		"/>
		<polygon fill="#FF8251" points="262.638,3733.256 525.013,4200 787.54,3733.256 		"/>
		<polygon fill="#918442" points="3674.98,4200 3937.517,3733.256 3412.605,3733.256 		"/>
		<polygon fill="#928140" points="3937.517,2800.074 3937.517,2799.998 3674.98,2333.357 3412.605,2800.074 		"/>
		<polygon fill="#FE9F5D" points="1837.544,2799.998 1575.08,2333.357 1312.543,2800.074 1837.544,2800.074 		"/>
		<polygon fill="#E48656" points="2362.619,933.394 1837.544,933.394 2100.064,1399.943 		"/>
		<polygon fill="#897B3E" points="3674.98,2333.357 3937.517,1866.66 3412.605,1866.66 		"/>
		<polygon fill="#E9B759" points="1312.543,3733.256 1575.08,4200 1837.544,3733.256 		"/>
		<polygon fill="#FEB970" points="2625.066,2333.357 2887.459,1866.66 2362.619,1866.66 		"/>
		<polygon fill="#FFBA77" points="1312.543,1866.66 1575.08,2333.357 1837.544,1866.66 		"/>
		<polygon fill="#F39661" points="1312.543,933.394 787.54,933.394 1049.987,1399.943 		"/>
		<polygon fill="#B29046" points="2362.619,3733.256 2625.066,4200 2887.459,3733.256 		"/>
		<polygon fill="#FCBF81" points="2887.459,2800.074 2887.604,2799.998 2625.066,2333.357 2362.619,2800.074 		"/>
		<polygon fill="#F49059" points="262.638,1866.66 525.013,2333.357 787.54,1866.66 		"/>
		<polygon fill="#D67554" points="1837.544,933.394 1575.08,466.734 1312.543,933.394 		"/>
		<polygon fill="#D68E56" points="2887.459,933.394 2887.604,933.394 2625.066,466.734 2362.619,933.394 		"/>
		<polygon fill="#9F8845" points="3412.605,933.394 2887.604,933.394 2887.459,933.394 3149.978,1399.943 		"/>
		<polygon fill="#C44A52" points="787.54,933.394 525.013,466.734 262.638,933.394 		"/>
		<polygon fill="#E9AE58" points="2887.459,2800.074 3149.978,3266.605 3412.605,2800.074 2887.604,2800.074 		"/>
		<polygon fill="#BF3853" points="787.54,0 262.638,0 525.013,466.734 		"/>
		<polygon fill="#C0A04E" points="3412.605,1866.66 3149.978,1399.943 2887.459,1866.66 		"/>
		<polygon fill="#A74E48" points="1837.544,0 1312.543,0 1575.08,466.734 		"/>
		<polygon fill="#FFB068" points="1837.544,2800.074 2100.064,3266.605 2362.619,2800.074 		"/>
		<polygon fill="#FFB56E" points="2362.619,1866.66 2100.064,1399.943 1837.544,1866.66 		"/>
		<polygon fill="#F2AB59" points="1837.544,3733.256 2362.619,3733.256 2100.064,3266.605 		"/>
		<polygon fill="#FDAD6C" points="1049.987,1399.943 787.54,1866.66 1312.543,1866.66 		"/>
		<polygon fill="#B89147" points="3412.605,3733.256 3149.978,3266.605 2887.459,3733.256 		"/>
		<polygon fill="#834A41" points="3937.517,0 3412.605,0 3674.98,466.734 		"/>
		<polygon fill="#F3964E" points="787.54,3733.256 1312.543,3733.256 1049.987,3266.605 		"/>
		<polygon fill="#755B3B" points="3937.517,933.394 3674.98,466.734 3412.605,933.394 		"/>
		<polygon fill="#B7584E" points="2887.459,0 2362.619,0 2625.066,466.734 		"/>
		<polygon fill="#6D4C3A" points="4200,933.394 4200,466.881 4200,466.734 3937.517,933.394 		"/>
		<polygon fill="#704E3B" points="3937.517,933.394 4200,466.734 3674.98,466.734 		"/>
		<polygon fill="#73473D" points="4200,466.734 3937.517,0 3674.98,466.734 		"/>
		<polygon fill="#915A44" points="3674.98,466.734 3412.605,0 3149.978,466.734 		"/>
		<polygon fill="#A7544A" points="3412.605,0 2887.459,0 3149.978,466.734 		"/>
		<polygon fill="#866840" points="3674.98,466.734 3149.978,466.734 3412.605,933.394 		"/>
		<polygon fill="#A58249" points="3412.605,933.394 3149.978,466.734 2887.604,933.394 		"/>
		<polygon fill="#C68753" points="3149.978,466.734 2625.066,466.734 2887.604,933.394 		"/>
		<polygon fill="#BA684F" points="3149.978,466.734 2887.459,0 2625.066,466.734 		"/>
		<polygon fill="#B7614D" points="2625.066,466.734 2362.619,0 2100.064,466.734 		"/>
		<polygon fill="#A45347" points="2362.619,0 1837.544,0 2100.064,466.734 		"/>
		<polygon fill="#C87451" points="2625.066,466.734 2100.064,466.734 2362.619,933.394 		"/>
		<polygon fill="#CE7051" points="2362.619,933.394 2100.064,466.734 1837.544,933.394 		"/>
		<polygon fill="#C66850" points="2100.064,466.734 1575.08,466.734 1837.544,933.394 		"/>
		<polygon fill="#AE584A" points="2100.064,466.734 1837.544,0 1575.08,466.734 		"/>
		<polygon fill="#B8524E" points="1575.08,466.734 1312.543,0 1049.987,466.734 		"/>
		<polygon fill="#B94350" points="1312.543,0 787.54,0 1049.987,466.734 		"/>
		<polygon fill="#D16A55" points="1575.08,466.734 1049.987,466.734 1312.543,933.394 		"/>
		<polygon fill="#E47F5D" points="1312.543,933.394 1049.987,466.734 787.54,933.394 		"/>
		<polygon fill="#D26157" points="1049.987,466.734 525.013,466.734 787.54,933.394 		"/>
		<polygon fill="#C84B56" points="1049.987,466.734 787.54,0 525.013,466.734 		"/>
		<polygon fill="#B73550" points="525.013,466.734 262.638,0 0,466.734 		"/>
		<polygon fill="#BA3851" points="525.013,466.734 0,466.734 262.638,933.394 		"/>
		<polygon fill="#6F573A" points="3674.98,1399.943 4200,1399.943 3937.517,933.394 		"/>
		<polygon fill="#735E3A" points="3674.98,1399.943 3937.517,933.394 3412.605,933.394 		"/>
		<polygon fill="#705D39" points="3937.517,1866.66 4200,1399.943 3674.98,1399.943 		"/>
		<polygon fill="#82753C" points="3937.517,1866.66 3674.98,1399.943 3412.605,1866.66 		"/>
		<polygon fill="#908140" points="3412.605,1866.66 3674.98,1399.943 3149.978,1399.943 		"/>
		<polygon fill="#7D6F3B" points="3149.978,1399.943 3674.98,1399.943 3412.605,933.394 		"/>
		<polygon fill="#7E6E3D" points="3674.98,3266.605 4200,3266.605 3937.517,2800.074 		"/>
		<polygon fill="#9E8943" points="3674.98,3266.605 3937.517,2800.074 3412.605,2800.074 		"/>
		<polygon fill="#887442" points="3937.517,3733.256 4200,3266.605 3674.98,3266.605 		"/>
		<polygon fill="#978143" points="3937.517,3733.256 3674.98,3266.605 3412.605,3733.256 		"/>
		<polygon fill="#BB954A" points="3412.605,3733.256 3674.98,3266.605 3149.978,3266.605 		"/>
		<polygon fill="#D9A855" points="3149.978,3266.605 3674.98,3266.605 3412.605,2800.074 		"/>
		<polygon fill="#D7A556" points="3149.978,1399.943 2887.459,933.394 2625.066,1399.943 		"/>
		<polygon fill="#E39A58" points="2887.459,933.394 2362.619,933.394 2625.066,1399.943 		"/>
		<polygon fill="#E1AC58" points="2887.459,1866.66 3149.978,1399.943 2625.066,1399.943 		"/>
		<polygon fill="#F9A95E" points="2887.459,1866.66 2625.066,1399.943 2362.619,1866.66 		"/>
		<polygon fill="#FBA25E" points="2625.066,1399.943 2100.064,1399.943 2362.619,1866.66 		"/>
		<polygon fill="#E98D57" points="2625.066,1399.943 2362.619,933.394 2100.064,1399.943 		"/>
		<polygon fill="#EFAD5A" points="2625.066,3266.605 3149.978,3266.605 2887.459,2800.074 		"/>
		<polygon fill="#FDBD74" points="2625.066,3266.605 2887.459,2800.074 2362.619,2800.074 		"/>
		<polygon fill="#C7944B" points="2887.459,3733.256 3149.978,3266.605 2625.066,3266.605 		"/>
		<polygon fill="#CA944B" points="2362.619,3733.256 2887.459,3733.256 2625.066,3266.605 		"/>
		<polygon fill="#EA9E55" points="2100.064,3266.605 2362.619,3733.256 2625.066,3266.605 		"/>
		<polygon fill="#F8A85D" points="2100.064,3266.605 2625.066,3266.605 2362.619,2800.074 		"/>
		<polygon fill="#F3985B" points="2100.064,1399.943 1837.544,933.394 1575.08,1399.943 		"/>
		<polygon fill="#EF935C" points="1837.544,933.394 1312.543,933.394 1575.08,1399.943 		"/>
		<polygon fill="#FFB46E" points="2100.064,1399.943 1575.08,1399.943 1837.544,1866.66 		"/>
		<polygon fill="#FFC88B" points="1575.08,1399.943 1049.987,1399.943 1312.543,1866.66 		"/>
		<polygon fill="#FDB170" points="1575.08,1399.943 1312.543,933.394 1049.987,1399.943 		"/>
		<polygon fill="#FFA761" points="1575.08,3266.605 2100.064,3266.605 1837.544,2800.074 		"/>
		<polygon fill="#FE9F5B" points="1312.543,2800.074 1575.08,3266.605 1837.544,2800.074 		"/>
		<polygon fill="#FFAE64" points="1575.08,3266.605 1837.544,3733.256 2100.064,3266.605 		"/>
		<polygon fill="#FAA959" points="1312.543,3733.256 1837.544,3733.256 1575.08,3266.605 		"/>
		<polygon fill="#F59753" points="1049.987,3266.605 1312.543,3733.256 1575.08,3266.605 		"/>
		<polygon fill="#F79555" points="1312.543,2800.074 1049.987,3266.605 1575.08,3266.605 		"/>
		<polygon fill="#DB7257" points="787.54,933.394 525.013,1399.943 1049.987,1399.943 		"/>
		<polygon fill="#C75051" points="262.638,933.394 525.013,1399.943 787.54,933.394 		"/>
		<polygon fill="#E37C58" points="1049.987,1399.943 525.013,1399.943 787.54,1866.66 		"/>
		<polygon fill="#DF7454" points="525.013,1399.943 262.638,1866.66 787.54,1866.66 		"/>
		<polygon fill="#CE5E4F" points="525.013,1399.943 0,1399.943 262.638,1866.66 		"/>
		<polygon fill="#C24A4F" points="262.638,933.394 0,1399.943 525.013,1399.943 		"/>
		<polygon fill="#EB834F" points="787.54,2800.074 525.013,3266.605 1049.987,3266.605 		"/>
		<polygon fill="#E67C4E" points="262.638,2800.074 525.013,3266.605 787.54,2800.074 		"/>
		<polygon fill="#F4894C" points="1049.987,3266.605 525.013,3266.605 787.54,3733.256 		"/>
		<polygon fill="#FD7F4B" points="525.013,3266.605 262.638,3733.256 787.54,3733.256 		"/>
		<polygon fill="#E58051" points="262.451,2799.998 0,2333.494 0,2800.074 262.451,2800.074 		"/>
		<polygon fill="#FA7F4F" points="0,3733.256 0,4199.864 262.451,3733.256 		"/>
		<polygon fill="#EF8D57" points="0,1866.66 0,2333.223 262.451,1866.66 		"/>
		<polygon fill="#C04950" points="0,466.87 0,933.394 262.451,933.394 		"/>
		<polygon fill="#BB3751" points="262.451,0 0,0 0,466.599 		"/>
		<polygon fill="#C34E4F" points="0,933.394 0,1399.808 262.451,933.394 		"/>
		<polygon fill="#DB7252" points="0,1400.079 0,1866.66 262.451,1866.66 		"/>
		<polygon fill="#E17A4C" points="0,2800.074 0,3266.471 262.451,2800.074 		"/>
		<polygon fill="#F87C4A" points="0,3266.74 0,3733.256 262.451,3733.256 		"/>
		<polygon fill="#F7784A" points="525.013,3266.605 0,3266.605 262.638,3733.256 		"/>
		<polygon fill="#E4764C" points="262.638,2800.074 0,3266.605 525.013,3266.605 		"/>
		<polygon fill="#706139" points="3937.517,1866.66 4200,2333.357 4200,1866.66 4135.21,1866.66 		"/>
		<polygon fill="#716239" points="4200,2800.074 4200,2333.357 3937.517,2800.074 		"/>
		<polygon fill="#76693A" points="3937.517,2799.998 3937.517,2800.074 4200,2333.357 3674.98,2333.357 		"/>
		<polygon fill="#76683A" points="3674.98,2333.357 4200,2333.357 3937.517,1866.66 		"/>
		<polygon fill="#806E40" points="4200,4200 4200,3733.256 3937.517,3733.256 		"/>
		<polygon fill="#84773F" points="3674.98,4200 4200,4200 3937.517,3733.256 		"/>
		<polygon fill="#AB9148" points="3149.978,2333.357 3674.98,2333.357 3412.605,1866.66 		"/>
		<polygon fill="#D0A753" points="3149.978,2333.357 3412.605,1866.66 2887.459,1866.66 		"/>
		<polygon fill="#B6964A" points="3412.605,2800.074 3674.98,2333.357 3149.978,2333.357 		"/>
		<polygon fill="#FFC074" points="2887.604,2800.074 2887.604,2799.998 2887.459,2800.074 		"/>
		<polygon fill="#E6AD58" points="3412.605,2800.074 3149.978,2333.357 2887.604,2800.074 		"/>
		<polygon fill="#FABA6A" points="2887.604,2799.998 2887.604,2800.074 3149.978,2333.357 2625.066,2333.357 		"/>
		<polygon fill="#F4B460" points="2625.066,2333.357 3149.978,2333.357 2887.459,1866.66 		"/>
		<polygon fill="#978C42" points="3149.978,4200 3674.98,4200 3412.605,3733.256 		"/>
		<polygon fill="#A88B43" points="2887.459,3733.256 3149.978,4200 3412.605,3733.256 		"/>
		<polygon fill="#A78F44" points="2625.066,4200 3149.978,4200 2887.459,3733.256 		"/>
		<polygon fill="#FFC27E" points="2100.064,2333.357 2625.066,2333.357 2362.619,1866.66 		"/>
		<polygon fill="#FFC07C" points="2362.619,1866.66 1837.544,1866.66 2100.064,2333.357 		"/>
		<polygon fill="#FFC785" points="2362.619,2800.074 2625.066,2333.357 2100.064,2333.357 		"/>
		<polygon fill="#FFC381" points="2362.619,2800.074 2100.064,2333.357 1837.544,2800.074 		"/>
		<polygon fill="#FFB773" points="1837.544,2800.074 2100.064,2333.357 1575.08,2333.357 1837.544,2799.998 		"/>
		<polygon fill="#F9B475" points="1837.544,1866.66 1575.08,2333.357 2100.064,2333.357 		"/>
		<polygon fill="#B09948" points="2100.064,4200 2625.066,4200 2362.619,3733.256 		"/>
		<polygon fill="#C5A64F" points="1837.544,3733.256 2100.064,4200 2362.619,3733.256 		"/>
		<polygon fill="#CEB656" points="1575.08,4200 2100.064,4200 1837.544,3733.256 		"/>
		<polygon fill="#FEA463" points="1312.543,1866.66 1049.987,2333.357 1575.08,2333.357 		"/>
		<polygon fill="#FFAC69" points="787.54,1866.66 1049.987,2333.357 1312.543,1866.66 		"/>
		<polygon fill="#FA975B" points="1575.08,2333.357 1049.987,2333.357 1312.543,2800.074 		"/>
		<polygon fill="#F69157" points="1049.987,2333.357 787.54,2800.074 1312.543,2800.074 		"/>
		<polygon fill="#F58F58" points="787.54,2800.074 1049.987,2333.357 525.013,2333.357 787.54,2799.998 		"/>
		<polygon fill="#FB995C" points="787.54,1866.66 525.013,2333.357 1049.987,2333.357 		"/>
		<polygon fill="#F2A752" points="1049.987,4200 1575.08,4200 1312.543,3733.256 		"/>
		<polygon fill="#FA9D4E" points="787.54,3733.256 1049.987,4200 1312.543,3733.256 		"/>
		<polygon fill="#FF8E51" points="525.013,4200 1049.987,4200 787.54,3733.256 		"/>
		<polygon fill="#EA8556" points="262.638,1866.66 0,2333.357 525.013,2333.357 		"/>
		<polygon fill="#E57F54" points="525.013,2333.357 0,2333.357 262.638,2800.074 		"/>
		<polygon fill="#FF8056" points="262.638,3733.256 0,4200 525.013,4200 		"/>
		<polygon fill="#6D503A" points="4200,1399.943 4200,933.394 3937.517,933.394 		"/>
		<polygon fill="#6E5C39" points="4135.21,1866.66 4200,1866.66 4200,1399.943 3937.517,1866.66 		"/>
		<polygon fill="#73643A" points="4200,3266.605 4200,2800.074 3937.517,2800.074 		"/>
		<polygon fill="#826E42" points="4200,3733.256 4200,3266.605 3937.517,3733.256 		"/>
		<polygon fill="#713E3D" points="4200,0 3937.517,0 4200,466.734 		"/>
	</g>
</g>
<g id="Layer_2" display="none">
	<defs>
		<filter id="Adobe_OpacityMaskFilter" filterUnits="userSpaceOnUse" x="434.433" y="469.302" width="3876.155" height="3876.155">
			<feColorMatrix  type="matrix" values="1 0 0 0 0  0 1 0 0 0  0 0 1 0 0  0 0 0 1 0"/>
		</filter>
	</defs>
	<mask maskUnits="userSpaceOnUse" x="434.433" y="469.302" width="3876.155" height="3876.155" id="SVGID_1_" display="inline">
		<g filter="url(#Adobe_OpacityMaskFilter)">
			<g>
				<path fill="#FFFFFF" d="M1036.818,785.019h79.201v420.604h-49.201v0.6L846.016,922.421v283.203h-79.201V785.619h64.201
					l205.802,260.403V785.019z"/>
				<path fill="#FFFFFF" d="M1501.816,1205.624h-314.403c0-139.801,0-280.203,0-420.004h314.403v76.801h-235.802v96.601h227.402
					v73.801h-227.402v94.801h235.802V1205.624z"/>
				<path fill="#FFFFFF" d="M1933.213,1152.823c-43.2,42.601-99.001,62.4-159.602,62.4c-156.001,0-222.002-107.4-222.602-216.602
					c-0.6-109.801,70.8-221.402,222.602-221.402c57,0,111.001,21.6,154.202,64.201l-52.801,51c-27.6-27-64.8-39.601-101.401-39.601
					c-101.401,0-145.202,75.601-144.602,145.802c0.6,69.601,40.8,142.201,144.602,142.201c36.601,0,78.001-15,105.601-42.601
					L1933.213,1152.823z"/>
				<path fill="#FFFFFF" d="M2080.201,857.62H1947v-72.001c121.202,0,223.803,0,345.604,0v72.001h-133.201v348.003h-79.201V857.62z"
					/>
				<path fill="#FFFFFF" d="M2653.797,1205.624h-314.403c0-139.801,0-280.203,0-420.004h314.403v76.801h-235.802v96.601h227.402
					v73.801h-227.402v94.801h235.802V1205.624z"/>
				<path fill="#FFFFFF" d="M3087.593,1205.624h-94.2l-122.401-140.401h-76.201v140.401h-79.2V785.019
					c66.601,0,133.201,0.6,199.802,0.6c99.001,0.6,151.201,66.601,151.201,139.202c0,57.601-26.4,115.801-106.201,132.001
					l127.201,143.401V1205.624z M2794.791,859.42v134.401h120.602c50.4,0,72.001-33.6,72.001-67.201
					c0-33.6-22.2-67.201-72.001-67.201H2794.791z"/>
				<path fill="#FFFFFF" d="M3433.185,1205.624h-314.402c0-139.801,0-280.203,0-420.004h314.402v76.801h-235.802v96.601h227.402
					v73.801h-227.402v94.801h235.802V1205.624z"/>
			</g>
		</g>
	</mask>
	<g display="inline" mask="url(#SVGID_1_)">
		<polygon fill="#FFC98B" points="2130.291,2192.032 1888.065,1761.302 1645.771,2192.032 		"/>
		<polygon fill="#F18C53" points="1161.249,3053.474 1403.46,3484.033 1645.771,3053.474 		"/>
		<polygon fill="#EA8353" points="1161.249,3053.404 918.964,2622.744 676.82,3053.474 1161.249,3053.474 		"/>
		<polygon fill="#FF8251" points="676.82,3914.702 918.964,4345.457 1161.249,3914.702 		"/>
		<polygon fill="#918442" points="3826.05,4345.457 4068.343,3914.702 3583.906,3914.702 		"/>
		<polygon fill="#928140" points="4068.343,3053.474 4068.343,3053.404 3826.05,2622.744 3583.906,3053.474 		"/>
		<polygon fill="#FE9F5D" points="2130.291,3053.404 1888.065,2622.744 1645.771,3053.474 2130.291,3053.474 		"/>
		<polygon fill="#E48656" points="2614.88,1330.727 2130.291,1330.727 2372.57,1761.302 		"/>
		<polygon fill="#897B3E" points="3826.05,2622.744 4068.343,2192.032 3583.906,2192.032 		"/>
		<polygon fill="#E9B759" points="1645.771,3914.702 1888.065,4345.457 2130.291,3914.702 		"/>
		<polygon fill="#FEB970" points="2857.091,2622.744 3099.251,2192.032 2614.88,2192.032 		"/>
		<polygon fill="#FFBA77" points="1645.771,2192.032 1888.065,2622.744 2130.291,2192.032 		"/>
		<polygon fill="#F39661" points="1645.771,1330.727 1161.249,1330.727 1403.46,1761.302 		"/>
		<polygon fill="#B29046" points="2614.88,3914.702 2857.091,4345.457 3099.251,3914.702 		"/>
		<polygon fill="#FCBF81" points="3099.251,3053.474 3099.385,3053.404 2857.091,2622.744 2614.88,3053.474 		"/>
		<polygon fill="#F49059" points="676.82,2192.032 918.964,2622.744 1161.249,2192.032 		"/>
		<polygon fill="#D67554" points="2130.291,1330.727 1888.065,900.049 1645.771,1330.727 		"/>
		<polygon fill="#D68E56" points="3099.251,1330.727 3099.385,1330.727 2857.091,900.049 2614.88,1330.727 		"/>
		<polygon fill="#9F8845" points="3583.906,1330.727 3099.385,1330.727 3099.251,1330.727 3341.528,1761.302 		"/>
		<polygon fill="#C44A52" points="1161.249,1330.727 918.964,900.049 676.82,1330.727 		"/>
		<polygon fill="#E9AE58" points="3099.251,3053.474 3341.528,3484.033 3583.906,3053.474 3099.385,3053.474 		"/>
		<polygon fill="#BF3853" points="1161.249,469.302 676.82,469.302 918.964,900.049 		"/>
		<polygon fill="#C0A04E" points="3583.906,2192.032 3341.528,1761.302 3099.251,2192.032 		"/>
		<polygon fill="#A74E48" points="2130.291,469.302 1645.771,469.302 1888.065,900.049 		"/>
		<polygon fill="#FFB068" points="2130.291,3053.474 2372.57,3484.033 2614.88,3053.474 		"/>
		<polygon fill="#FFB56E" points="2614.88,2192.032 2372.57,1761.302 2130.291,2192.032 		"/>
		<polygon fill="#F2AB59" points="2130.291,3914.702 2614.88,3914.702 2372.57,3484.033 		"/>
		<polygon fill="#FDAD6C" points="1403.46,1761.302 1161.249,2192.032 1645.771,2192.032 		"/>
		<polygon fill="#B89147" points="3583.906,3914.702 3341.528,3484.033 3099.251,3914.702 		"/>
		<polygon fill="#834A41" points="4068.343,469.302 3583.906,469.302 3826.05,900.049 		"/>
		<polygon fill="#F3964E" points="1161.249,3914.702 1645.771,3914.702 1403.46,3484.033 		"/>
		<polygon fill="#755B3B" points="4068.343,1330.727 3826.05,900.049 3583.906,1330.727 		"/>
		<polygon fill="#B7584E" points="3099.251,469.302 2614.88,469.302 2857.091,900.049 		"/>
		<polygon fill="#6D4C3A" points="4310.587,1330.727 4310.587,900.184 4310.587,900.049 4068.343,1330.727 		"/>
		<polygon fill="#704E3B" points="4068.343,1330.727 4310.587,900.049 3826.05,900.049 		"/>
		<polygon fill="#73473D" points="4310.587,900.049 4068.343,469.302 3826.05,900.049 		"/>
		<polygon fill="#915A44" points="3826.05,900.049 3583.906,469.302 3341.528,900.049 		"/>
		<polygon fill="#A7544A" points="3583.906,469.302 3099.251,469.302 3341.528,900.049 		"/>
		<polygon fill="#866840" points="3826.05,900.049 3341.528,900.049 3583.906,1330.727 		"/>
		<polygon fill="#A58249" points="3583.906,1330.727 3341.528,900.049 3099.385,1330.727 		"/>
		<polygon fill="#C68753" points="3341.528,900.049 2857.091,900.049 3099.385,1330.727 		"/>
		<polygon fill="#BA684F" points="3341.528,900.049 3099.251,469.302 2857.091,900.049 		"/>
		<polygon fill="#B7614D" points="2857.091,900.049 2614.88,469.302 2372.57,900.049 		"/>
		<polygon fill="#A45347" points="2614.88,469.302 2130.291,469.302 2372.57,900.049 		"/>
		<polygon fill="#C87451" points="2857.091,900.049 2372.57,900.049 2614.88,1330.727 		"/>
		<polygon fill="#CE7051" points="2614.88,1330.727 2372.57,900.049 2130.291,1330.727 		"/>
		<polygon fill="#C66850" points="2372.57,900.049 1888.065,900.049 2130.291,1330.727 		"/>
		<polygon fill="#AE584A" points="2372.57,900.049 2130.291,469.302 1888.065,900.049 		"/>
		<polygon fill="#B8524E" points="1888.065,900.049 1645.771,469.302 1403.46,900.049 		"/>
		<polygon fill="#B94350" points="1645.771,469.302 1161.249,469.302 1403.46,900.049 		"/>
		<polygon fill="#D16A55" points="1888.065,900.049 1403.46,900.049 1645.771,1330.727 		"/>
		<polygon fill="#E47F5D" points="1645.771,1330.727 1403.46,900.049 1161.249,1330.727 		"/>
		<polygon fill="#D26157" points="1403.46,900.049 918.964,900.049 1161.249,1330.727 		"/>
		<polygon fill="#C84B56" points="1403.46,900.049 1161.249,469.302 918.964,900.049 		"/>
		<polygon fill="#B73550" points="918.964,900.049 676.82,469.302 434.433,900.049 		"/>
		<polygon fill="#BA3851" points="918.964,900.049 434.433,900.049 676.82,1330.727 		"/>
		<polygon fill="#6F573A" points="3826.05,1761.302 4310.587,1761.302 4068.343,1330.727 		"/>
		<polygon fill="#735E3A" points="3826.05,1761.302 4068.343,1330.727 3583.906,1330.727 		"/>
		<polygon fill="#705D39" points="4068.343,2192.032 4310.587,1761.302 3826.05,1761.302 		"/>
		<polygon fill="#82753C" points="4068.343,2192.032 3826.05,1761.302 3583.906,2192.032 		"/>
		<polygon fill="#908140" points="3583.906,2192.032 3826.05,1761.302 3341.528,1761.302 		"/>
		<polygon fill="#7D6F3B" points="3341.528,1761.302 3826.05,1761.302 3583.906,1330.727 		"/>
		<polygon fill="#7E6E3D" points="3826.05,3484.033 4310.587,3484.033 4068.343,3053.474 		"/>
		<polygon fill="#9E8943" points="3826.05,3484.033 4068.343,3053.474 3583.906,3053.474 		"/>
		<polygon fill="#887442" points="4068.343,3914.702 4310.587,3484.033 3826.05,3484.033 		"/>
		<polygon fill="#978143" points="4068.343,3914.702 3826.05,3484.033 3583.906,3914.702 		"/>
		<polygon fill="#BB954A" points="3583.906,3914.702 3826.05,3484.033 3341.528,3484.033 		"/>
		<polygon fill="#D9A855" points="3341.528,3484.033 3826.05,3484.033 3583.906,3053.474 		"/>
		<polygon fill="#D7A556" points="3341.528,1761.302 3099.251,1330.727 2857.091,1761.302 		"/>
		<polygon fill="#E39A58" points="3099.251,1330.727 2614.88,1330.727 2857.091,1761.302 		"/>
		<polygon fill="#E1AC58" points="3099.251,2192.032 3341.528,1761.302 2857.091,1761.302 		"/>
		<polygon fill="#F9A95E" points="3099.251,2192.032 2857.091,1761.302 2614.88,2192.032 		"/>
		<polygon fill="#FBA25E" points="2857.091,1761.302 2372.57,1761.302 2614.88,2192.032 		"/>
		<polygon fill="#E98D57" points="2857.091,1761.302 2614.88,1330.727 2372.57,1761.302 		"/>
		<polygon fill="#EFAD5A" points="2857.091,3484.033 3341.528,3484.033 3099.251,3053.474 		"/>
		<polygon fill="#FDBD74" points="2857.091,3484.033 3099.251,3053.474 2614.88,3053.474 		"/>
		<polygon fill="#C7944B" points="3099.251,3914.702 3341.528,3484.033 2857.091,3484.033 		"/>
		<polygon fill="#CA944B" points="2614.88,3914.702 3099.251,3914.702 2857.091,3484.033 		"/>
		<polygon fill="#EA9E55" points="2372.57,3484.033 2614.88,3914.702 2857.091,3484.033 		"/>
		<polygon fill="#F8A85D" points="2372.57,3484.033 2857.091,3484.033 2614.88,3053.474 		"/>
		<polygon fill="#F3985B" points="2372.57,1761.302 2130.291,1330.727 1888.065,1761.302 		"/>
		<polygon fill="#EF935C" points="2130.291,1330.727 1645.771,1330.727 1888.065,1761.302 		"/>
		<polygon fill="#FFB46E" points="2372.57,1761.302 1888.065,1761.302 2130.291,2192.032 		"/>
		<polygon fill="#FFC88B" points="1888.065,1761.302 1403.46,1761.302 1645.771,2192.032 		"/>
		<polygon fill="#FDB170" points="1888.065,1761.302 1645.771,1330.727 1403.46,1761.302 		"/>
		<polygon fill="#FFA761" points="1888.065,3484.033 2372.57,3484.033 2130.291,3053.474 		"/>
		<polygon fill="#FE9F5B" points="1645.771,3053.474 1888.065,3484.033 2130.291,3053.474 		"/>
		<polygon fill="#FFAE64" points="1888.065,3484.033 2130.291,3914.702 2372.57,3484.033 		"/>
		<polygon fill="#FAA959" points="1645.771,3914.702 2130.291,3914.702 1888.065,3484.033 		"/>
		<polygon fill="#F59753" points="1403.46,3484.033 1645.771,3914.702 1888.065,3484.033 		"/>
		<polygon fill="#F79555" points="1645.771,3053.474 1403.46,3484.033 1888.065,3484.033 		"/>
		<polygon fill="#DB7257" points="1161.249,1330.727 918.964,1761.302 1403.46,1761.302 		"/>
		<polygon fill="#C75051" points="676.82,1330.727 918.964,1761.302 1161.249,1330.727 		"/>
		<polygon fill="#E37C58" points="1403.46,1761.302 918.964,1761.302 1161.249,2192.032 		"/>
		<polygon fill="#DF7454" points="918.964,1761.302 676.82,2192.032 1161.249,2192.032 		"/>
		<polygon fill="#CE5E4F" points="918.964,1761.302 434.433,1761.302 676.82,2192.032 		"/>
		<polygon fill="#C24A4F" points="676.82,1330.727 434.433,1761.302 918.964,1761.302 		"/>
		<polygon fill="#EB834F" points="1161.249,3053.474 918.964,3484.033 1403.46,3484.033 		"/>
		<polygon fill="#E67C4E" points="676.82,3053.474 918.964,3484.033 1161.249,3053.474 		"/>
		<polygon fill="#F4894C" points="1403.46,3484.033 918.964,3484.033 1161.249,3914.702 		"/>
		<polygon fill="#FD7F4B" points="918.964,3484.033 676.82,3914.702 1161.249,3914.702 		"/>
		<polygon fill="#E58051" points="676.648,3053.404 434.433,2622.87 434.433,3053.474 676.648,3053.474 		"/>
		<polygon fill="#FA7F4F" points="434.433,3914.702 434.433,4345.332 676.648,3914.702 		"/>
		<polygon fill="#EF8D57" points="434.433,2192.032 434.433,2622.62 676.648,2192.032 		"/>
		<polygon fill="#C04950" points="434.433,900.174 434.433,1330.727 676.648,1330.727 		"/>
		<polygon fill="#BB3751" points="676.648,469.302 434.433,469.302 434.433,899.924 		"/>
		<polygon fill="#C34E4F" points="434.433,1330.727 434.433,1761.177 676.648,1330.727 		"/>
		<polygon fill="#DB7252" points="434.433,1761.427 434.433,2192.032 676.648,2192.032 		"/>
		<polygon fill="#E17A4C" points="434.433,3053.474 434.433,3483.908 676.648,3053.474 		"/>
		<polygon fill="#F87C4A" points="434.433,3484.157 434.433,3914.702 676.648,3914.702 		"/>
		<polygon fill="#F7784A" points="918.964,3484.033 434.433,3484.033 676.82,3914.702 		"/>
		<polygon fill="#E4764C" points="676.82,3053.474 434.433,3484.033 918.964,3484.033 		"/>
		<polygon fill="#706139" points="4068.343,2192.032 4310.587,2622.744 4310.587,2192.032 4250.793,2192.032 		"/>
		<polygon fill="#716239" points="4310.587,3053.474 4310.587,2622.744 4068.343,3053.474 		"/>
		<polygon fill="#76693A" points="4068.343,3053.404 4068.343,3053.474 4310.587,2622.744 3826.05,2622.744 		"/>
		<polygon fill="#76683A" points="3826.05,2622.744 4310.587,2622.744 4068.343,2192.032 		"/>
		<polygon fill="#806E40" points="4310.587,4345.457 4310.587,3914.702 4068.343,3914.702 		"/>
		<polygon fill="#84773F" points="3826.05,4345.457 4310.587,4345.457 4068.343,3914.702 		"/>
		<polygon fill="#AB9148" points="3341.528,2622.744 3826.05,2622.744 3583.906,2192.032 		"/>
		<polygon fill="#D0A753" points="3341.528,2622.744 3583.906,2192.032 3099.251,2192.032 		"/>
		<polygon fill="#B6964A" points="3583.906,3053.474 3826.05,2622.744 3341.528,2622.744 		"/>
		<polygon fill="#FFC074" points="3099.385,3053.474 3099.385,3053.404 3099.251,3053.474 		"/>
		<polygon fill="#E6AD58" points="3583.906,3053.474 3341.528,2622.744 3099.385,3053.474 		"/>
		<polygon fill="#FABA6A" points="3099.385,3053.404 3099.385,3053.474 3341.528,2622.744 2857.091,2622.744 		"/>
		<polygon fill="#F4B460" points="2857.091,2622.744 3341.528,2622.744 3099.251,2192.032 		"/>
		<polygon fill="#978C42" points="3341.528,4345.457 3826.05,4345.457 3583.906,3914.702 		"/>
		<polygon fill="#A88B43" points="3099.251,3914.702 3341.528,4345.457 3583.906,3914.702 		"/>
		<polygon fill="#A78F44" points="2857.091,4345.457 3341.528,4345.457 3099.251,3914.702 		"/>
		<polygon fill="#FFC27E" points="2372.57,2622.744 2857.091,2622.744 2614.88,2192.032 		"/>
		<polygon fill="#FFC07C" points="2614.88,2192.032 2130.291,2192.032 2372.57,2622.744 		"/>
		<polygon fill="#FFC785" points="2614.88,3053.474 2857.091,2622.744 2372.57,2622.744 		"/>
		<polygon fill="#FFC381" points="2614.88,3053.474 2372.57,2622.744 2130.291,3053.474 		"/>
		<polygon fill="#FFB773" points="2130.291,3053.474 2372.57,2622.744 1888.065,2622.744 2130.291,3053.404 		"/>
		<polygon fill="#F9B475" points="2130.291,2192.032 1888.065,2622.744 2372.57,2622.744 		"/>
		<polygon fill="#B09948" points="2372.57,4345.457 2857.091,4345.457 2614.88,3914.702 		"/>
		<polygon fill="#C5A64F" points="2130.291,3914.702 2372.57,4345.457 2614.88,3914.702 		"/>
		<polygon fill="#CEB656" points="1888.065,4345.457 2372.57,4345.457 2130.291,3914.702 		"/>
		<polygon fill="#FEA463" points="1645.771,2192.032 1403.46,2622.744 1888.065,2622.744 		"/>
		<polygon fill="#FFAC69" points="1161.249,2192.032 1403.46,2622.744 1645.771,2192.032 		"/>
		<polygon fill="#FA975B" points="1888.065,2622.744 1403.46,2622.744 1645.771,3053.474 		"/>
		<polygon fill="#F69157" points="1403.46,2622.744 1161.249,3053.474 1645.771,3053.474 		"/>
		<polygon fill="#F58F58" points="1161.249,3053.474 1403.46,2622.744 918.964,2622.744 1161.249,3053.404 		"/>
		<polygon fill="#FB995C" points="1161.249,2192.032 918.964,2622.744 1403.46,2622.744 		"/>
		<polygon fill="#F2A752" points="1403.46,4345.457 1888.065,4345.457 1645.771,3914.702 		"/>
		<polygon fill="#FA9D4E" points="1161.249,3914.702 1403.46,4345.457 1645.771,3914.702 		"/>
		<polygon fill="#FF8E51" points="918.964,4345.457 1403.46,4345.457 1161.249,3914.702 		"/>
		<polygon fill="#EA8556" points="676.82,2192.032 434.433,2622.744 918.964,2622.744 		"/>
		<polygon fill="#E57F54" points="918.964,2622.744 434.433,2622.744 676.82,3053.474 		"/>
		<polygon fill="#FF8056" points="676.82,3914.702 434.433,4345.457 918.964,4345.457 		"/>
		<polygon fill="#6D503A" points="4310.587,1761.302 4310.587,1330.727 4068.343,1330.727 		"/>
		<polygon fill="#6E5C39" points="4250.793,2192.032 4310.587,2192.032 4310.587,1761.302 4068.343,2192.032 		"/>
		<polygon fill="#73643A" points="4310.587,3484.033 4310.587,3053.474 4068.343,3053.474 		"/>
		<polygon fill="#826E42" points="4310.587,3914.702 4310.587,3484.033 4068.343,3914.702 		"/>
		<polygon fill="#713E3D" points="4310.587,469.302 4068.343,469.302 4310.587,900.049 		"/>
	</g>
</g>
</svg>
