<?xml version="1.0" encoding="utf-8"?>
<!-- Generator: Adobe Illustrator 17.0.0, SVG Export Plug-In . SVG Version: 6.00 Build 0)  -->
<!DOCTYPE svg PUBLIC "-//W3C//DTD SVG 1.1//EN" "http://www.w3.org/Graphics/SVG/1.1/DTD/svg11.dtd">
<svg version="1.1" xmlns="http://www.w3.org/2000/svg" xmlns:xlink="http://www.w3.org/1999/xlink" x="0px" y="0px" width="4200px"
	 height="4200px" viewBox="0 0 4200 4200" enable-background="new 0 0 4200 4200" xml:space="preserve">
<g id="Layer_1">
	<g>
		<polygon fill="#FFC98B" points="1838.984,1867.44 1575.454,1399.275 1311.851,1867.44 		"/>
		<polygon fill="#F18C53" points="786.724,2798.737 1050.237,3266.717 1313.859,2798.737 		"/>
		<polygon fill="#EA8353" points="788.732,2799.664 525.138,2331.574 261.697,2799.74 788.732,2799.74 		"/>
		<polygon fill="#FF8251" points="261.697,3731.807 525.138,4200 788.732,3731.807 		"/>
		<polygon fill="#918442" points="3675.852,4200 3939.455,3731.807 3412.411,3731.807 		"/>
		<polygon fill="#928140" points="3939.455,2799.74 3939.455,2799.664 3675.852,2331.574 3412.411,2799.74 		"/>
		<polygon fill="#FE9F5D" points="1838.984,2799.664 1575.454,2331.574 1311.851,2799.74 1838.984,2799.74 		"/>
		<polygon fill="#E48656" points="2364.184,932.28 1836.976,932.28 2100.563,1400.278 		"/>
		<polygon fill="#897B3E" points="3675.852,2334.583 3939.455,1866.437 3412.411,1866.437 		"/>
		<polygon fill="#E9B759" points="1311.851,3731.807 1575.454,4200 1838.984,3731.807 		"/>
		<polygon fill="#FEB970" points="2625.689,2334.583 2889.148,1866.437 2362.176,1866.437 		"/>
		<polygon fill="#FFBA77" points="1311.851,1866.437 1575.454,2334.583 1838.984,1866.437 		"/>
		<polygon fill="#F39661" points="1313.859,932.28 786.724,932.28 1050.237,1400.278 		"/>
		<polygon fill="#B29046" points="2362.176,3731.807 2625.689,4200 2889.148,3731.807 		"/>
		<polygon fill="#FCBF81" points="2889.148,2799.74 2889.293,2799.664 2625.689,2331.574 2362.176,2799.74 		"/>
		<polygon fill="#F49059" points="261.697,1866.437 525.138,2334.583 788.732,1866.437 		"/>
		<polygon fill="#D67554" points="1838.984,934.286 1575.454,466.177 1311.851,934.286 		"/>
		<polygon fill="#D68E56" points="2889.148,934.286 2889.293,934.286 2625.689,466.177 2362.176,934.286 		"/>
		<polygon fill="#9F8845" points="3414.419,932.28 2887.285,932.28 2887.14,932.28 3150.725,1400.278 		"/>
		<polygon fill="#C44A52" points="788.732,934.286 525.138,466.177 261.697,934.286 		"/>
		<polygon fill="#E9AE58" points="2887.14,2798.737 3150.725,3266.717 3414.419,2798.737 2887.285,2798.737 		"/>
		<polygon fill="#BF3853" points="788.732,0 261.697,0 525.138,468.184 		"/>
		<polygon fill="#C0A04E" points="3414.419,1867.44 3150.725,1399.275 2887.14,1867.44 		"/>
		<polygon fill="#A74E48" points="1838.984,0 1311.851,0 1575.454,468.184 		"/>
		<polygon fill="#FFB068" points="1836.976,2798.737 2100.563,3266.717 2364.184,2798.737 		"/>
		<polygon fill="#FFB56E" points="2364.184,1867.44 2100.563,1399.275 1836.976,1867.44 		"/>
		<polygon fill="#F2AB59" points="1836.976,3733.813 2364.184,3733.813 2100.563,3265.714 		"/>
		<polygon fill="#FDAD6C" points="1050.237,1399.275 786.724,1867.44 1313.859,1867.44 		"/>
		<polygon fill="#B89147" points="3414.419,3733.813 3150.725,3265.714 2887.14,3733.813 		"/>
		<polygon fill="#834A41" points="3939.455,0 3412.411,0 3675.852,468.184 		"/>
		<polygon fill="#F3964E" points="786.724,3733.813 1313.859,3733.813 1050.237,3265.714 		"/>
		<polygon fill="#755B3B" points="3939.455,934.286 3675.852,466.177 3412.411,934.286 		"/>
		<polygon fill="#B7584E" points="2889.148,0 2362.176,0 2625.689,468.184 		"/>
		<polygon fill="#6D4C3A" points="4200.996,934.286 4200.996,466.324 4200.996,466.177 3937.446,934.286 		"/>
		<polygon fill="#704E3B" points="3938.45,934.286 4202,466.177 3674.848,466.177 		"/>
		<polygon fill="#73473D" points="4202,468.184 3938.45,0 3674.848,468.184 		"/>
		<polygon fill="#915A44" points="3676.856,468.184 3413.415,0 3149.72,468.184 		"/>
		<polygon fill="#A7544A" points="3414.419,0 2887.14,0 3150.725,468.184 		"/>
		<polygon fill="#866840" points="3676.856,466.177 3149.72,466.177 3413.415,934.286 		"/>
		<polygon fill="#A58249" points="3414.419,934.286 3150.725,466.177 2887.285,934.286 		"/>
		<polygon fill="#C68753" points="3151.729,466.177 2624.685,466.177 2888.289,934.286 		"/>
		<polygon fill="#BA684F" points="3151.729,468.184 2888.144,0 2624.685,468.184 		"/>
		<polygon fill="#B7614D" points="2626.694,468.184 2363.18,0 2099.559,468.184 		"/>
		<polygon fill="#A45347" points="2364.184,0 1836.976,0 2100.563,468.184 		"/>
		<polygon fill="#C87451" points="2626.694,466.177 2099.559,466.177 2363.18,934.286 		"/>
		<polygon fill="#CE7051" points="2364.184,934.286 2100.563,466.177 1836.976,934.286 		"/>
		<polygon fill="#C66850" points="2101.567,466.177 1574.45,466.177 1837.98,934.286 		"/>
		<polygon fill="#AE584A" points="2101.567,468.184 1837.98,0 1574.45,468.184 		"/>
		<polygon fill="#B8524E" points="1576.459,468.184 1312.855,0 1049.233,468.184 		"/>
		<polygon fill="#B94350" points="1313.859,0 786.724,0 1050.237,468.184 		"/>
		<polygon fill="#D16A55" points="1576.459,466.177 1049.233,466.177 1312.855,934.286 		"/>
		<polygon fill="#E47F5D" points="1313.859,934.286 1050.237,466.177 786.724,934.286 		"/>
		<polygon fill="#D26157" points="1051.241,466.177 524.134,466.177 787.728,934.286 		"/>
		<polygon fill="#C84B56" points="1051.241,468.184 787.728,0 524.134,468.184 		"/>
		<polygon fill="#B73550" points="526.142,468.184 262.701,0 -1.003,468.184 		"/>
		<polygon fill="#BA3851" points="526.142,466.177 -1.003,466.177 262.701,934.286 		"/>
		<polygon fill="#6F573A" points="3674.848,1400.278 4202,1400.278 3938.45,932.28 		"/>
		<polygon fill="#735E3A" points="3675.852,1400.278 3939.455,932.28 3412.411,932.28 		"/>
		<polygon fill="#705D39" points="3938.45,1867.44 4202,1399.275 3674.848,1399.275 		"/>
		<polygon fill="#82753C" points="3939.455,1867.44 3675.852,1399.275 3412.411,1867.44 		"/>
		<polygon fill="#908140" points="3413.415,1867.44 3676.856,1399.275 3149.72,1399.275 		"/>
		<polygon fill="#7D6F3B" points="3149.72,1400.278 3676.856,1400.278 3413.415,932.28 		"/>
		<polygon fill="#7E6E3D" points="3674.848,3266.717 4202,3266.717 3938.45,2798.737 		"/>
		<polygon fill="#9E8943" points="3675.852,3266.717 3939.455,2798.737 3412.411,2798.737 		"/>
		<polygon fill="#887442" points="3938.45,3733.813 4202,3265.714 3674.848,3265.714 		"/>
		<polygon fill="#978143" points="3939.455,3733.813 3675.852,3265.714 3412.411,3733.813 		"/>
		<polygon fill="#BB954A" points="3413.415,3733.813 3676.856,3265.714 3149.72,3265.714 		"/>
		<polygon fill="#D9A855" points="3149.72,3266.717 3676.856,3266.717 3413.415,2798.737 		"/>
		<polygon fill="#D7A556" points="3151.729,1400.278 2888.144,932.28 2624.685,1400.278 		"/>
		<polygon fill="#E39A58" points="2889.148,932.28 2362.176,932.28 2625.689,1400.278 		"/>
		<polygon fill="#E1AC58" points="2888.144,1867.44 3151.729,1399.275 2624.685,1399.275 		"/>
		<polygon fill="#F9A95E" points="2889.148,1867.44 2625.689,1399.275 2362.176,1867.44 		"/>
		<polygon fill="#FBA25E" points="2626.694,1399.275 2099.559,1399.275 2363.18,1867.44 		"/>
		<polygon fill="#E98D57" points="2626.694,1400.278 2363.18,932.28 2099.559,1400.278 		"/>
		<polygon fill="#EFAD5A" points="2624.685,3266.717 3151.729,3266.717 2888.144,2798.737 		"/>
		<polygon fill="#FDBD74" points="2625.689,3266.717 2889.148,2798.737 2362.176,2798.737 		"/>
		<polygon fill="#C7944B" points="2888.144,3733.813 3151.729,3265.714 2624.685,3265.714 		"/>
		<polygon fill="#CA944B" points="2362.176,3733.813 2889.148,3733.813 2625.689,3265.714 		"/>
		<polygon fill="#EA9E55" points="2099.559,3265.714 2363.18,3733.813 2626.694,3265.714 		"/>
		<polygon fill="#F8A85D" points="2099.559,3266.717 2626.694,3266.717 2363.18,2798.737 		"/>
		<polygon fill="#F3985B" points="2101.567,1400.278 1837.98,932.28 1574.45,1400.278 		"/>
		<polygon fill="#EF935C" points="1838.984,932.28 1311.851,932.28 1575.454,1400.278 		"/>
		<polygon fill="#FFB46E" points="2101.567,1399.275 1574.45,1399.275 1837.98,1867.44 		"/>
		<polygon fill="#FFC88B" points="1576.459,1399.275 1049.233,1399.275 1312.855,1867.44 		"/>
		<polygon fill="#FDB170" points="1576.459,1400.278 1312.855,932.28 1049.233,1400.278 		"/>
		<polygon fill="#FFA761" points="1574.45,3266.717 2101.567,3266.717 1837.98,2798.737 		"/>
		<polygon fill="#FE9F5B" points="1311.851,2798.737 1575.454,3266.717 1838.984,2798.737 		"/>
		<polygon fill="#FFAE64" points="1574.45,3265.714 1837.98,3733.813 2101.567,3265.714 		"/>
		<polygon fill="#FAA959" points="1311.851,3733.813 1838.984,3733.813 1575.454,3265.714 		"/>
		<polygon fill="#F59753" points="1049.233,3265.714 1312.855,3733.813 1576.459,3265.714 		"/>
		<polygon fill="#F79555" points="1312.855,2798.737 1049.233,3266.717 1576.459,3266.717 		"/>
		<polygon fill="#DB7257" points="787.728,932.28 524.134,1400.278 1051.241,1400.278 		"/>
		<polygon fill="#C75051" points="261.697,932.28 525.138,1400.278 788.732,932.28 		"/>
		<polygon fill="#E37C58" points="1051.241,1399.275 524.134,1399.275 787.728,1867.44 		"/>
		<polygon fill="#DF7454" points="525.138,1399.275 261.697,1867.44 788.732,1867.44 		"/>
		<polygon fill="#CE5E4F" points="526.142,1399.275 -1.003,1399.275 262.701,1867.44 		"/>
		<polygon fill="#C24A4F" points="262.701,932.28 -1.003,1400.278 526.142,1400.278 		"/>
		<polygon fill="#EB834F" points="787.728,2798.737 524.134,3266.717 1051.241,3266.717 		"/>
		<polygon fill="#E67C4E" points="261.697,2798.737 525.138,3266.717 788.732,2798.737 		"/>
		<polygon fill="#F4894C" points="1051.241,3265.714 524.134,3265.714 787.728,3733.813 		"/>
		<polygon fill="#FD7F4B" points="525.138,3265.714 261.697,3733.813 788.732,3733.813 		"/>
		<polygon fill="#E58051" points="263.518,2799.664 0.001,2331.711 0.001,2799.74 263.518,2799.74 		"/>
		<polygon fill="#FA7F4F" points="0.001,3731.807 0.001,4199.864 263.518,3731.807 		"/>
		<polygon fill="#EF8D57" points="0.001,1866.437 0.001,2334.448 263.518,1866.437 		"/>
		<polygon fill="#C04950" points="0.001,466.313 0.001,934.286 263.518,934.286 		"/>
		<polygon fill="#BB3751" points="263.518,0 0.001,0 0.001,468.047 		"/>
		<polygon fill="#C34E4F" points="0.001,932.28 0.001,1400.141 263.518,932.28 		"/>
		<polygon fill="#DB7252" points="0.001,1399.411 0.001,1867.44 263.518,1867.44 		"/>
		<polygon fill="#E17A4C" points="0.001,2798.737 0.001,3266.582 263.518,2798.737 		"/>
		<polygon fill="#F87C4A" points="0.001,3265.849 0.001,3733.813 263.518,3733.813 		"/>
		<polygon fill="#F7784A" points="526.142,3265.714 -1.003,3265.714 262.701,3733.813 		"/>
		<polygon fill="#E4764C" points="262.701,2798.737 -1.003,3266.717 526.142,3266.717 		"/>
		<polygon fill="#706139" points="3937.446,1866.437 4200.996,2334.583 4200.996,1866.437 4135.943,1866.437 		"/>
		<polygon fill="#716239" points="4200.996,2799.74 4200.996,2331.574 3937.446,2799.74 		"/>
		<polygon fill="#76693A" points="3938.45,2799.664 3938.45,2799.74 4202,2331.574 3674.848,2331.574 		"/>
		<polygon fill="#76683A" points="3674.848,2334.583 4202,2334.583 3938.45,1866.437 		"/>
		<polygon fill="#806E40" points="4200.996,4200 4200.996,3731.807 3937.446,3731.807 		"/>
		<polygon fill="#84773F" points="3674.848,4200 4202,4200 3938.45,3731.807 		"/>
		<polygon fill="#AB9148" points="3149.72,2334.583 3676.856,2334.583 3413.415,1866.437 		"/>
		<polygon fill="#D0A753" points="3150.725,2334.583 3414.419,1866.437 2887.14,1866.437 		"/>
		<polygon fill="#B6964A" points="3413.415,2799.74 3676.856,2331.574 3149.72,2331.574 		"/>
		<polygon fill="#FFC074" points="2882.265,2799.74 2882.265,2799.664 2882.119,2799.74 		"/>
		<polygon fill="#E6AD58" points="3414.419,2799.74 3150.725,2331.574 2887.285,2799.74 		"/>
		<polygon fill="#FABA6A" points="2888.289,2799.664 2888.289,2799.74 3151.729,2331.574 2624.685,2331.574 		"/>
		<polygon fill="#F4B460" points="2624.685,2334.583 3151.729,2334.583 2888.144,1866.437 		"/>
		<polygon fill="#978C42" points="3149.72,4200 3676.856,4200 3413.415,3731.807 		"/>
		<polygon fill="#A88B43" points="2887.14,3731.807 3150.725,4200 3414.419,3731.807 		"/>
		<polygon fill="#A78F44" points="2624.685,4200 3151.729,4200 2888.144,3731.807 		"/>
		<polygon fill="#FFC27E" points="2099.559,2334.583 2626.694,2334.583 2363.18,1866.437 		"/>
		<polygon fill="#FFC07C" points="2364.184,1866.437 1836.976,1866.437 2100.563,2334.583 		"/>
		<polygon fill="#FFC785" points="2363.18,2799.74 2626.694,2331.574 2099.559,2331.574 		"/>
		<polygon fill="#FFC381" points="2364.184,2799.74 2100.563,2331.574 1836.976,2799.74 		"/>
		<polygon fill="#FFB773" points="1837.98,2799.74 2101.567,2331.574 1574.45,2331.574 1837.98,2799.664 		"/>
		<polygon fill="#F9B475" points="1837.98,1866.437 1574.45,2334.583 2101.567,2334.583 		"/>
		<polygon fill="#B09948" points="2099.559,4200 2626.694,4200 2363.18,3731.807 		"/>
		<polygon fill="#C5A64F" points="1836.976,3731.807 2100.563,4200 2364.184,3731.807 		"/>
		<polygon fill="#CEB656" points="1574.45,4200 2101.567,4200 1837.98,3731.807 		"/>
		<polygon fill="#FEA463" points="1312.855,1866.437 1049.233,2334.583 1576.459,2334.583 		"/>
		<polygon fill="#FFAC69" points="786.724,1866.437 1050.237,2334.583 1313.859,1866.437 		"/>
		<polygon fill="#FA975B" points="1576.459,2331.574 1049.233,2331.574 1312.855,2799.74 		"/>
		<polygon fill="#F69157" points="1050.237,2331.574 786.724,2799.74 1313.859,2799.74 		"/>
		<polygon fill="#F58F58" points="787.728,2799.74 1051.241,2331.574 524.134,2331.574 787.728,2799.664 		"/>
		<polygon fill="#FB995C" points="787.728,1866.437 524.134,2334.583 1051.241,2334.583 		"/>
		<polygon fill="#F2A752" points="1049.233,4200 1576.459,4200 1312.855,3731.807 		"/>
		<polygon fill="#FA9D4E" points="786.724,3731.807 1050.237,4200 1313.859,3731.807 		"/>
		<polygon fill="#FF8E51" points="524.134,4200 1051.241,4200 787.728,3731.807 		"/>
		<polygon fill="#EA8556" points="262.701,1866.437 -1.003,2334.583 526.142,2334.583 		"/>
		<polygon fill="#E57F54" points="526.142,2331.574 -1.003,2331.574 262.701,2799.74 		"/>
		<polygon fill="#FF8056" points="262.701,3731.807 -1.003,4200 526.142,4200 		"/>
		<polygon fill="#6D503A" points="4200.996,1400.278 4200.996,932.28 3937.446,932.28 		"/>
		<polygon fill="#6E5C39" points="4135.943,1867.44 4200.996,1867.44 4200.996,1399.275 3937.446,1867.44 		"/>
		<polygon fill="#73643A" points="4200.996,3266.717 4200.996,2798.737 3937.446,2798.737 		"/>
		<polygon fill="#826E42" points="4200.996,3733.813 4200.996,3265.714 3937.446,3733.813 		"/>
		<polygon fill="#713E3D" points="4200.996,0 3937.446,0 4200.996,468.184 		"/>
	</g>
</g>
<g id="Layer_2" display="none">
	<defs>
		<filter id="Adobe_OpacityMaskFilter" filterUnits="userSpaceOnUse" x="434.433" y="469.302" width="3876.155" height="3876.155">
			<feColorMatrix  type="matrix" values="1 0 0 0 0  0 1 0 0 0  0 0 1 0 0  0 0 0 1 0"/>
		</filter>
	</defs>
	<mask maskUnits="userSpaceOnUse" x="434.433" y="469.302" width="3876.155" height="3876.155" id="SVGID_1_" display="inline">
		<g filter="url(#Adobe_OpacityMaskFilter)">
			<g>
				<path fill="#FFFFFF" d="M1036.818,785.019h79.201v420.604h-49.201v0.6L846.016,922.421v283.203h-79.201V785.619h64.201
					l205.802,260.403V785.019z"/>
				<path fill="#FFFFFF" d="M1501.816,1205.624h-314.403c0-139.801,0-280.203,0-420.004h314.403v76.801h-235.802v96.601h227.402
					v73.801h-227.402v94.801h235.802V1205.624z"/>
				<path fill="#FFFFFF" d="M1933.213,1152.823c-43.2,42.601-99.001,62.4-159.602,62.4c-156.001,0-222.002-107.4-222.602-216.602
					c-0.6-109.801,70.8-221.402,222.602-221.402c57,0,111.001,21.6,154.202,64.201l-52.801,51c-27.6-27-64.8-39.601-101.401-39.601
					c-101.401,0-145.202,75.601-144.602,145.802c0.6,69.601,40.8,142.201,144.602,142.201c36.601,0,78.001-15,105.601-42.601
					L1933.213,1152.823z"/>
				<path fill="#FFFFFF" d="M2080.201,857.62H1947v-72.001c121.202,0,223.803,0,345.604,0v72.001h-133.201v348.003h-79.201V857.62z"
					/>
				<path fill="#FFFFFF" d="M2653.797,1205.624h-314.403c0-139.801,0-280.203,0-420.004h314.403v76.801h-235.802v96.601h227.402
					v73.801h-227.402v94.801h235.802V1205.624z"/>
				<path fill="#FFFFFF" d="M3087.593,1205.624h-94.2l-122.401-140.401h-76.201v140.401h-79.2V785.019
					c66.601,0,133.201,0.6,199.802,0.6c99.001,0.6,151.201,66.601,151.201,139.202c0,57.601-26.4,115.801-106.201,132.001
					l127.201,143.401V1205.624z M2794.791,859.42v134.401h120.602c50.4,0,72.001-33.6,72.001-67.201
					c0-33.6-22.2-67.201-72.001-67.201H2794.791z"/>
				<path fill="#FFFFFF" d="M3433.185,1205.624h-314.402c0-139.801,0-280.203,0-420.004h314.402v76.801h-235.802v96.601h227.402
					v73.801h-227.402v94.801h235.802V1205.624z"/>
			</g>
		</g>
	</mask>
	<g display="inline" mask="url(#SVGID_1_)">
		<polygon fill="#FFC98B" points="2130.291,2192.032 1888.065,1761.302 1645.771,2192.032 		"/>
		<polygon fill="#F18C53" points="1161.249,3053.474 1403.46,3484.033 1645.771,3053.474 		"/>
		<polygon fill="#EA8353" points="1161.249,3053.404 918.964,2622.744 676.82,3053.474 1161.249,3053.474 		"/>
		<polygon fill="#FF8251" points="676.82,3914.702 918.964,4345.457 1161.249,3914.702 		"/>
		<polygon fill="#918442" points="3826.05,4345.457 4068.343,3914.702 3583.906,3914.702 		"/>
		<polygon fill="#928140" points="4068.343,3053.474 4068.343,3053.404 3826.05,2622.744 3583.906,3053.474 		"/>
		<polygon fill="#FE9F5D" points="2130.291,3053.404 1888.065,2622.744 1645.771,3053.474 2130.291,3053.474 		"/>
		<polygon fill="#E48656" points="2614.88,1330.727 2130.291,1330.727 2372.57,1761.302 		"/>
		<polygon fill="#897B3E" points="3826.05,2622.744 4068.343,2192.032 3583.906,2192.032 		"/>
		<polygon fill="#E9B759" points="1645.771,3914.702 1888.065,4345.457 2130.291,3914.702 		"/>
		<polygon fill="#FEB970" points="2857.091,2622.744 3099.251,2192.032 2614.88,2192.032 		"/>
		<polygon fill="#FFBA77" points="1645.771,2192.032 1888.065,2622.744 2130.291,2192.032 		"/>
		<polygon fill="#F39661" points="1645.771,1330.727 1161.249,1330.727 1403.46,1761.302 		"/>
		<polygon fill="#B29046" points="2614.88,3914.702 2857.091,4345.457 3099.251,3914.702 		"/>
		<polygon fill="#FCBF81" points="3099.251,3053.474 3099.385,3053.404 2857.091,2622.744 2614.88,3053.474 		"/>
		<polygon fill="#F49059" points="676.82,2192.032 918.964,2622.744 1161.249,2192.032 		"/>
		<polygon fill="#D67554" points="2130.291,1330.727 1888.065,900.049 1645.771,1330.727 		"/>
		<polygon fill="#D68E56" points="3099.251,1330.727 3099.385,1330.727 2857.091,900.049 2614.88,1330.727 		"/>
		<polygon fill="#9F8845" points="3583.906,1330.727 3099.385,1330.727 3099.251,1330.727 3341.528,1761.302 		"/>
		<polygon fill="#C44A52" points="1161.249,1330.727 918.964,900.049 676.82,1330.727 		"/>
		<polygon fill="#E9AE58" points="3099.251,3053.474 3341.528,3484.033 3583.906,3053.474 3099.385,3053.474 		"/>
		<polygon fill="#BF3853" points="1161.249,469.302 676.82,469.302 918.964,900.049 		"/>
		<polygon fill="#C0A04E" points="3583.906,2192.032 3341.528,1761.302 3099.251,2192.032 		"/>
		<polygon fill="#A74E48" points="2130.291,469.302 1645.771,469.302 1888.065,900.049 		"/>
		<polygon fill="#FFB068" points="2130.291,3053.474 2372.57,3484.033 2614.88,3053.474 		"/>
		<polygon fill="#FFB56E" points="2614.88,2192.032 2372.57,1761.302 2130.291,2192.032 		"/>
		<polygon fill="#F2AB59" points="2130.291,3914.702 2614.88,3914.702 2372.57,3484.033 		"/>
		<polygon fill="#FDAD6C" points="1403.46,1761.302 1161.249,2192.032 1645.771,2192.032 		"/>
		<polygon fill="#B89147" points="3583.906,3914.702 3341.528,3484.033 3099.251,3914.702 		"/>
		<polygon fill="#834A41" points="4068.343,469.302 3583.906,469.302 3826.05,900.049 		"/>
		<polygon fill="#F3964E" points="1161.249,3914.702 1645.771,3914.702 1403.46,3484.033 		"/>
		<polygon fill="#755B3B" points="4068.343,1330.727 3826.05,900.049 3583.906,1330.727 		"/>
		<polygon fill="#B7584E" points="3099.251,469.302 2614.88,469.302 2857.091,900.049 		"/>
		<polygon fill="#6D4C3A" points="4310.587,1330.727 4310.587,900.184 4310.587,900.049 4068.343,1330.727 		"/>
		<polygon fill="#704E3B" points="4068.343,1330.727 4310.587,900.049 3826.05,900.049 		"/>
		<polygon fill="#73473D" points="4310.587,900.049 4068.343,469.302 3826.05,900.049 		"/>
		<polygon fill="#915A44" points="3826.05,900.049 3583.906,469.302 3341.528,900.049 		"/>
		<polygon fill="#A7544A" points="3583.906,469.302 3099.251,469.302 3341.528,900.049 		"/>
		<polygon fill="#866840" points="3826.05,900.049 3341.528,900.049 3583.906,1330.727 		"/>
		<polygon fill="#A58249" points="3583.906,1330.727 3341.528,900.049 3099.385,1330.727 		"/>
		<polygon fill="#C68753" points="3341.528,900.049 2857.091,900.049 3099.385,1330.727 		"/>
		<polygon fill="#BA684F" points="3341.528,900.049 3099.251,469.302 2857.091,900.049 		"/>
		<polygon fill="#B7614D" points="2857.091,900.049 2614.88,469.302 2372.57,900.049 		"/>
		<polygon fill="#A45347" points="2614.88,469.302 2130.291,469.302 2372.57,900.049 		"/>
		<polygon fill="#C87451" points="2857.091,900.049 2372.57,900.049 2614.88,1330.727 		"/>
		<polygon fill="#CE7051" points="2614.88,1330.727 2372.57,900.049 2130.291,1330.727 		"/>
		<polygon fill="#C66850" points="2372.57,900.049 1888.065,900.049 2130.291,1330.727 		"/>
		<polygon fill="#AE584A" points="2372.57,900.049 2130.291,469.302 1888.065,900.049 		"/>
		<polygon fill="#B8524E" points="1888.065,900.049 1645.771,469.302 1403.46,900.049 		"/>
		<polygon fill="#B94350" points="1645.771,469.302 1161.249,469.302 1403.46,900.049 		"/>
		<polygon fill="#D16A55" points="1888.065,900.049 1403.46,900.049 1645.771,1330.727 		"/>
		<polygon fill="#E47F5D" points="1645.771,1330.727 1403.46,900.049 1161.249,1330.727 		"/>
		<polygon fill="#D26157" points="1403.46,900.049 918.964,900.049 1161.249,1330.727 		"/>
		<polygon fill="#C84B56" points="1403.46,900.049 1161.249,469.302 918.964,900.049 		"/>
		<polygon fill="#B73550" points="918.964,900.049 676.82,469.302 434.433,900.049 		"/>
		<polygon fill="#BA3851" points="918.964,900.049 434.433,900.049 676.82,1330.727 		"/>
		<polygon fill="#6F573A" points="3826.05,1761.302 4310.587,1761.302 4068.343,1330.727 		"/>
		<polygon fill="#735E3A" points="3826.05,1761.302 4068.343,1330.727 3583.906,1330.727 		"/>
		<polygon fill="#705D39" points="4068.343,2192.032 4310.587,1761.302 3826.05,1761.302 		"/>
		<polygon fill="#82753C" points="4068.343,2192.032 3826.05,1761.302 3583.906,2192.032 		"/>
		<polygon fill="#908140" points="3583.906,2192.032 3826.05,1761.302 3341.528,1761.302 		"/>
		<polygon fill="#7D6F3B" points="3341.528,1761.302 3826.05,1761.302 3583.906,1330.727 		"/>
		<polygon fill="#7E6E3D" points="3826.05,3484.033 4310.587,3484.033 4068.343,3053.474 		"/>
		<polygon fill="#9E8943" points="3826.05,3484.033 4068.343,3053.474 3583.906,3053.474 		"/>
		<polygon fill="#887442" points="4068.343,3914.702 4310.587,3484.033 3826.05,3484.033 		"/>
		<polygon fill="#978143" points="4068.343,3914.702 3826.05,3484.033 3583.906,3914.702 		"/>
		<polygon fill="#BB954A" points="3583.906,3914.702 3826.05,3484.033 3341.528,3484.033 		"/>
		<polygon fill="#D9A855" points="3341.528,3484.033 3826.05,3484.033 3583.906,3053.474 		"/>
		<polygon fill="#D7A556" points="3341.528,1761.302 3099.251,1330.727 2857.091,1761.302 		"/>
		<polygon fill="#E39A58" points="3099.251,1330.727 2614.88,1330.727 2857.091,1761.302 		"/>
		<polygon fill="#E1AC58" points="3099.251,2192.032 3341.528,1761.302 2857.091,1761.302 		"/>
		<polygon fill="#F9A95E" points="3099.251,2192.032 2857.091,1761.302 2614.88,2192.032 		"/>
		<polygon fill="#FBA25E" points="2857.091,1761.302 2372.57,1761.302 2614.88,2192.032 		"/>
		<polygon fill="#E98D57" points="2857.091,1761.302 2614.88,1330.727 2372.57,1761.302 		"/>
		<polygon fill="#EFAD5A" points="2857.091,3484.033 3341.528,3484.033 3099.251,3053.474 		"/>
		<polygon fill="#FDBD74" points="2857.091,3484.033 3099.251,3053.474 2614.88,3053.474 		"/>
		<polygon fill="#C7944B" points="3099.251,3914.702 3341.528,3484.033 2857.091,3484.033 		"/>
		<polygon fill="#CA944B" points="2614.88,3914.702 3099.251,3914.702 2857.091,3484.033 		"/>
		<polygon fill="#EA9E55" points="2372.57,3484.033 2614.88,3914.702 2857.091,3484.033 		"/>
		<polygon fill="#F8A85D" points="2372.57,3484.033 2857.091,3484.033 2614.88,3053.474 		"/>
		<polygon fill="#F3985B" points="2372.57,1761.302 2130.291,1330.727 1888.065,1761.302 		"/>
		<polygon fill="#EF935C" points="2130.291,1330.727 1645.771,1330.727 1888.065,1761.302 		"/>
		<polygon fill="#FFB46E" points="2372.57,1761.302 1888.065,1761.302 2130.291,2192.032 		"/>
		<polygon fill="#FFC88B" points="1888.065,1761.302 1403.46,1761.302 1645.771,2192.032 		"/>
		<polygon fill="#FDB170" points="1888.065,1761.302 1645.771,1330.727 1403.46,1761.302 		"/>
		<polygon fill="#FFA761" points="1888.065,3484.033 2372.57,3484.033 2130.291,3053.474 		"/>
		<polygon fill="#FE9F5B" points="1645.771,3053.474 1888.065,3484.033 2130.291,3053.474 		"/>
		<polygon fill="#FFAE64" points="1888.065,3484.033 2130.291,3914.702 2372.57,3484.033 		"/>
		<polygon fill="#FAA959" points="1645.771,3914.702 2130.291,3914.702 1888.065,3484.033 		"/>
		<polygon fill="#F59753" points="1403.46,3484.033 1645.771,3914.702 1888.065,3484.033 		"/>
		<polygon fill="#F79555" points="1645.771,3053.474 1403.46,3484.033 1888.065,3484.033 		"/>
		<polygon fill="#DB7257" points="1161.249,1330.727 918.964,1761.302 1403.46,1761.302 		"/>
		<polygon fill="#C75051" points="676.82,1330.727 918.964,1761.302 1161.249,1330.727 		"/>
		<polygon fill="#E37C58" points="1403.46,1761.302 918.964,1761.302 1161.249,2192.032 		"/>
		<polygon fill="#DF7454" points="918.964,1761.302 676.82,2192.032 1161.249,2192.032 		"/>
		<polygon fill="#CE5E4F" points="918.964,1761.302 434.433,1761.302 676.82,2192.032 		"/>
		<polygon fill="#C24A4F" points="676.82,1330.727 434.433,1761.302 918.964,1761.302 		"/>
		<polygon fill="#EB834F" points="1161.249,3053.474 918.964,3484.033 1403.46,3484.033 		"/>
		<polygon fill="#E67C4E" points="676.82,3053.474 918.964,3484.033 1161.249,3053.474 		"/>
		<polygon fill="#F4894C" points="1403.46,3484.033 918.964,3484.033 1161.249,3914.702 		"/>
		<polygon fill="#FD7F4B" points="918.964,3484.033 676.82,3914.702 1161.249,3914.702 		"/>
		<polygon fill="#E58051" points="676.648,3053.404 434.433,2622.87 434.433,3053.474 676.648,3053.474 		"/>
		<polygon fill="#FA7F4F" points="434.433,3914.702 434.433,4345.332 676.648,3914.702 		"/>
		<polygon fill="#EF8D57" points="434.433,2192.032 434.433,2622.62 676.648,2192.032 		"/>
		<polygon fill="#C04950" points="434.433,900.174 434.433,1330.727 676.648,1330.727 		"/>
		<polygon fill="#BB3751" points="676.648,469.302 434.433,469.302 434.433,899.924 		"/>
		<polygon fill="#C34E4F" points="434.433,1330.727 434.433,1761.177 676.648,1330.727 		"/>
		<polygon fill="#DB7252" points="434.433,1761.427 434.433,2192.032 676.648,2192.032 		"/>
		<polygon fill="#E17A4C" points="434.433,3053.474 434.433,3483.908 676.648,3053.474 		"/>
		<polygon fill="#F87C4A" points="434.433,3484.157 434.433,3914.702 676.648,3914.702 		"/>
		<polygon fill="#F7784A" points="918.964,3484.033 434.433,3484.033 676.82,3914.702 		"/>
		<polygon fill="#E4764C" points="676.82,3053.474 434.433,3484.033 918.964,3484.033 		"/>
		<polygon fill="#706139" points="4068.343,2192.032 4310.587,2622.744 4310.587,2192.032 4250.793,2192.032 		"/>
		<polygon fill="#716239" points="4310.587,3053.474 4310.587,2622.744 4068.343,3053.474 		"/>
		<polygon fill="#76693A" points="4068.343,3053.404 4068.343,3053.474 4310.587,2622.744 3826.05,2622.744 		"/>
		<polygon fill="#76683A" points="3826.05,2622.744 4310.587,2622.744 4068.343,2192.032 		"/>
		<polygon fill="#806E40" points="4310.587,4345.457 4310.587,3914.702 4068.343,3914.702 		"/>
		<polygon fill="#84773F" points="3826.05,4345.457 4310.587,4345.457 4068.343,3914.702 		"/>
		<polygon fill="#AB9148" points="3341.528,2622.744 3826.05,2622.744 3583.906,2192.032 		"/>
		<polygon fill="#D0A753" points="3341.528,2622.744 3583.906,2192.032 3099.251,2192.032 		"/>
		<polygon fill="#B6964A" points="3583.906,3053.474 3826.05,2622.744 3341.528,2622.744 		"/>
		<polygon fill="#FFC074" points="3099.385,3053.474 3099.385,3053.404 3099.251,3053.474 		"/>
		<polygon fill="#E6AD58" points="3583.906,3053.474 3341.528,2622.744 3099.385,3053.474 		"/>
		<polygon fill="#FABA6A" points="3099.385,3053.404 3099.385,3053.474 3341.528,2622.744 2857.091,2622.744 		"/>
		<polygon fill="#F4B460" points="2857.091,2622.744 3341.528,2622.744 3099.251,2192.032 		"/>
		<polygon fill="#978C42" points="3341.528,4345.457 3826.05,4345.457 3583.906,3914.702 		"/>
		<polygon fill="#A88B43" points="3099.251,3914.702 3341.528,4345.457 3583.906,3914.702 		"/>
		<polygon fill="#A78F44" points="2857.091,4345.457 3341.528,4345.457 3099.251,3914.702 		"/>
		<polygon fill="#FFC27E" points="2372.57,2622.744 2857.091,2622.744 2614.88,2192.032 		"/>
		<polygon fill="#FFC07C" points="2614.88,2192.032 2130.291,2192.032 2372.57,2622.744 		"/>
		<polygon fill="#FFC785" points="2614.88,3053.474 2857.091,2622.744 2372.57,2622.744 		"/>
		<polygon fill="#FFC381" points="2614.88,3053.474 2372.57,2622.744 2130.291,3053.474 		"/>
		<polygon fill="#FFB773" points="2130.291,3053.474 2372.57,2622.744 1888.065,2622.744 2130.291,3053.404 		"/>
		<polygon fill="#F9B475" points="2130.291,2192.032 1888.065,2622.744 2372.57,2622.744 		"/>
		<polygon fill="#B09948" points="2372.57,4345.457 2857.091,4345.457 2614.88,3914.702 		"/>
		<polygon fill="#C5A64F" points="2130.291,3914.702 2372.57,4345.457 2614.88,3914.702 		"/>
		<polygon fill="#CEB656" points="1888.065,4345.457 2372.57,4345.457 2130.291,3914.702 		"/>
		<polygon fill="#FEA463" points="1645.771,2192.032 1403.46,2622.744 1888.065,2622.744 		"/>
		<polygon fill="#FFAC69" points="1161.249,2192.032 1403.46,2622.744 1645.771,2192.032 		"/>
		<polygon fill="#FA975B" points="1888.065,2622.744 1403.46,2622.744 1645.771,3053.474 		"/>
		<polygon fill="#F69157" points="1403.46,2622.744 1161.249,3053.474 1645.771,3053.474 		"/>
		<polygon fill="#F58F58" points="1161.249,3053.474 1403.46,2622.744 918.964,2622.744 1161.249,3053.404 		"/>
		<polygon fill="#FB995C" points="1161.249,2192.032 918.964,2622.744 1403.46,2622.744 		"/>
		<polygon fill="#F2A752" points="1403.46,4345.457 1888.065,4345.457 1645.771,3914.702 		"/>
		<polygon fill="#FA9D4E" points="1161.249,3914.702 1403.46,4345.457 1645.771,3914.702 		"/>
		<polygon fill="#FF8E51" points="918.964,4345.457 1403.46,4345.457 1161.249,3914.702 		"/>
		<polygon fill="#EA8556" points="676.82,2192.032 434.433,2622.744 918.964,2622.744 		"/>
		<polygon fill="#E57F54" points="918.964,2622.744 434.433,2622.744 676.82,3053.474 		"/>
		<polygon fill="#FF8056" points="676.82,3914.702 434.433,4345.457 918.964,4345.457 		"/>
		<polygon fill="#6D503A" points="4310.587,1761.302 4310.587,1330.727 4068.343,1330.727 		"/>
		<polygon fill="#6E5C39" points="4250.793,2192.032 4310.587,2192.032 4310.587,1761.302 4068.343,2192.032 		"/>
		<polygon fill="#73643A" points="4310.587,3484.033 4310.587,3053.474 4068.343,3053.474 		"/>
		<polygon fill="#826E42" points="4310.587,3914.702 4310.587,3484.033 4068.343,3914.702 		"/>
		<polygon fill="#713E3D" points="4310.587,469.302 4068.343,469.302 4310.587,900.049 		"/>
	</g>
</g>
</svg>
